<?xml version="1.0" encoding="utf-8"?>
<!-- Generator: Adobe Illustrator 15.1.0, SVG Export Plug-In . SVG Version: 6.00 Build 0)  -->
<!DOCTYPE svg PUBLIC "-//W3C//DTD SVG 1.1//EN" "http://www.w3.org/Graphics/SVG/1.1/DTD/svg11.dtd">
<svg version="1.1" id="Layer_1" xmlns="http://www.w3.org/2000/svg" xmlns:xlink="http://www.w3.org/1999/xlink" x="0px" y="0px"
	 width="226px" height="285.871px" viewBox="0 0 226 285.871" enable-background="new 0 0 226 285.871" xml:space="preserve">
<g id="FPTEYd_1_" display="none">
</g>
<g id="RLpbSY_1_" display="none">
</g>
<g>
	<path fill="#15C55B" d="M35.394,18.229c-1.08-1.114-1.322-2.812-0.594-4.189c0.519-0.983,0.555-2.156,0.098-3.168
		c-0.457-1.015-1.355-1.754-2.428-2.001c-1.504-0.345-2.612-1.641-2.736-3.199c-0.087-1.11-0.683-2.117-1.608-2.72
		C27.2,2.349,26.05,2.219,25.017,2.599c-1.451,0.533-3.073,0.05-4.008-1.192C20.34,0.521,19.303,0,18.202,0
		c-1.1,0-2.137,0.521-2.804,1.407c-0.935,1.243-2.559,1.726-4.008,1.192c-1.034-0.381-2.185-0.25-3.11,0.353
		c-0.926,0.603-1.521,1.609-1.609,2.72C6.548,7.229,5.439,8.524,3.936,8.87c-1.073,0.247-1.972,0.986-2.428,2.001
		c-0.458,1.013-0.421,2.186,0.098,3.169c0.727,1.377,0.486,3.075-0.595,4.189c-0.771,0.795-1.132,1.91-0.975,3.013
		c0.157,1.103,0.812,2.069,1.773,2.612c1.347,0.761,2.05,2.32,1.736,3.85c-0.225,1.091,0.067,2.226,0.787,3.069
		c0.721,0.843,1.788,1.296,2.887,1.226c1.539-0.098,2.962,0.829,3.514,2.289c0.394,1.041,1.244,1.836,2.3,2.15
		c1.056,0.314,2.196,0.11,3.082-0.55c1.243-0.925,2.936-0.925,4.178,0c0.887,0.66,2.026,0.864,3.082,0.55s1.906-1.109,2.3-2.15
		c0.551-1.459,1.975-2.386,3.514-2.289c1.098,0.07,2.165-0.383,2.885-1.226c0.721-0.843,1.012-1.977,0.788-3.069
		c-0.314-1.53,0.388-3.089,1.735-3.85c0.962-0.542,1.617-1.509,1.773-2.612C36.526,20.138,36.165,19.024,35.394,18.229
		 M15.184,27.276l-7.74-7.844l3.295-3.34l4.444,4.504L25.443,10.2l3.298,3.338L15.184,27.276z"/>
	<path fill="#FFFFFF" d="M142.277,87.631c0.248,0,0.445-0.076,0.592-0.229c0.146-0.153,0.219-0.364,0.219-0.632v-5.436
		c0-0.218-0.074-0.394-0.223-0.529c-0.149-0.133-0.346-0.201-0.588-0.201c-0.223,0-0.404,0.067-0.545,0.201
		c-0.141,0.135-0.209,0.311-0.209,0.529v5.436c0,0.275,0.064,0.487,0.194,0.637C141.85,87.557,142.035,87.631,142.277,87.631
		 M202.053,67.596c-13.226,0-23.947,10.721-23.947,23.947s10.724,23.947,23.947,23.947c13.225,0,23.947-10.721,23.947-23.947
		S215.277,67.596,202.053,67.596 M195.654,96.585c-2.73,0-4.944-2.255-4.944-5.041s2.213-5.042,4.944-5.042
		c2.732,0,4.947,2.257,4.947,5.042C200.602,94.33,198.387,96.585,195.654,96.585 M208.451,96.585c-2.732,0-4.947-2.255-4.947-5.041
		s2.215-5.042,4.947-5.042c2.73,0,4.945,2.257,4.945,5.042C213.396,94.33,211.182,96.585,208.451,96.585 M83.814,67.596
		c-13.225,0-23.946,10.721-23.946,23.947c0,13.227,10.721,23.947,23.946,23.947c13.226,0,23.948-10.721,23.948-23.947
		S97.041,67.596,83.814,67.596 M89.487,84.145h-3.601c-0.426,0-0.901,0.56-0.901,1.309v2.599h4.501v3.705h-4.501v11.129h-4.25
		V91.758h-3.853v-3.705h3.853v-2.181c0-3.127,2.171-5.672,5.151-5.672h3.601V84.145z M142.684,67.596
		c-13.225,0-23.945,10.721-23.945,23.947c0,13.227,10.722,23.947,23.945,23.947c13.228,0,23.947-10.721,23.947-23.947
		S155.91,67.596,142.684,67.596 M146.51,79.127h1.833v7.651c0,0.237,0.038,0.408,0.115,0.514s0.201,0.159,0.374,0.159
		c0.134,0,0.305-0.07,0.511-0.21c0.205-0.141,0.394-0.319,0.566-0.538v-7.576h1.832v9.981h-1.832v-1.102
		c-0.337,0.406-0.688,0.715-1.054,0.928c-0.365,0.212-0.722,0.318-1.063,0.318c-0.423,0-0.743-0.148-0.958-0.446
		c-0.214-0.297-0.322-0.742-0.322-1.337v-8.342H146.51z M142.366,78.875c0.757,0,1.379,0.241,1.862,0.725
		c0.483,0.483,0.728,1.105,0.728,1.866v5.155c0,0.854-0.238,1.525-0.713,2.011c-0.476,0.485-1.128,0.729-1.96,0.729
		c-0.803,0-1.443-0.251-1.924-0.752c-0.481-0.502-0.721-1.177-0.721-2.025V81.41c0-0.773,0.245-1.387,0.738-1.846
		S141.534,78.875,142.366,78.875 M134.891,75.578l1.338,5.408h0.129l1.276-5.408h2.097l-2.399,7.916v5.614h-2.062v-5.361
		l-2.455-8.169H134.891z M154.995,103.808c0,1.952-1.582,3.535-3.53,3.535c-2.781,0.118-5.627,0.169-8.531,0.164
		c-2.9,0.005-5.748-0.046-8.529-0.164c-1.948,0-3.529-1.583-3.529-3.535c-0.117-1.545-0.168-3.091-0.164-4.637
		c-0.004-1.546,0.046-3.092,0.163-4.637c0-1.951,1.582-3.535,3.53-3.535c2.781-0.117,5.628-0.17,8.529-0.164
		c2.903-0.006,5.75,0.047,8.531,0.164c1.949,0,3.53,1.584,3.53,3.535c0.116,1.545,0.168,3.091,0.163,4.637
		C155.163,100.717,155.111,102.263,154.995,103.808 M140.461,102.544c-0.139,0.177-0.292,0.322-0.458,0.435
		c-0.167,0.113-0.305,0.17-0.414,0.17c-0.139,0-0.239-0.043-0.302-0.129c-0.062-0.085-0.094-0.224-0.094-0.416V96.41h-1.482v6.755
		c0,0.481,0.087,0.842,0.262,1.083c0.174,0.241,0.432,0.36,0.774,0.36c0.278,0,0.565-0.085,0.86-0.257
		c0.295-0.171,0.58-0.422,0.854-0.751v0.893h1.482V96.41h-1.482V102.544L140.461,102.544z M151.025,96.206
		c-0.664,0-1.205,0.221-1.623,0.662c-0.42,0.442-0.629,1.014-0.629,1.715v3.627c0,0.778,0.188,1.389,0.572,1.833
		c0.381,0.445,0.902,0.667,1.566,0.667c0.736,0,1.293-0.209,1.666-0.629c0.372-0.418,0.559-1.043,0.559-1.871v-0.606h-1.527v0.561
		c0,0.476-0.049,0.783-0.146,0.922c-0.098,0.14-0.27,0.208-0.516,0.208c-0.235,0-0.403-0.082-0.5-0.247
		c-0.098-0.164-0.147-0.459-0.147-0.884v-1.524h2.837v-2.057c0-0.767-0.182-1.355-0.546-1.764
		C152.227,96.41,151.705,96.206,151.025,96.206 M151.609,99.386h-1.311v-0.817c0-0.338,0.053-0.581,0.154-0.728
		c0.104-0.146,0.271-0.22,0.508-0.22c0.227,0,0.393,0.074,0.494,0.22s0.152,0.389,0.152,0.728v0.817H151.609z M137.73,93.536h-5.127
		v1.59h1.729v9.366h1.67v-9.366h1.729V93.536z M146.208,96.308c-0.229,0-0.458,0.065-0.683,0.193
		c-0.226,0.129-0.438,0.316-0.637,0.562v-3.527h-1.498v10.956h1.498v-0.622c0.194,0.246,0.406,0.429,0.633,0.546
		c0.229,0.118,0.485,0.177,0.775,0.177c0.438,0,0.773-0.152,1.01-0.458c0.23-0.305,0.348-0.745,0.348-1.319v-4.482
		c0-0.661-0.125-1.163-0.371-1.509C147.036,96.481,146.677,96.308,146.208,96.308 M146.128,102.597c0,0.257-0.043,0.443-0.128,0.557
		c-0.085,0.113-0.219,0.17-0.4,0.17c-0.125,0-0.246-0.029-0.357-0.087c-0.113-0.058-0.229-0.153-0.354-0.284v-5.036
		c0.103-0.111,0.203-0.193,0.307-0.246c0.104-0.053,0.207-0.08,0.312-0.08c0.201,0,0.355,0.071,0.46,0.212
		c0.106,0.142,0.159,0.349,0.159,0.621L146.128,102.597L146.128,102.597z M24.446,67.596c-13.226,0-23.947,10.721-23.947,23.947
		c0,13.227,10.721,23.947,23.947,23.947c13.226,0,23.948-10.721,23.948-23.947S37.672,67.596,24.446,67.596 M34.186,87.214
		c0.009,0.203,0.014,0.406,0.014,0.61c0,6.233-4.744,13.421-13.419,13.421c-2.664,0-5.142-0.782-7.229-2.121
		c0.368,0.045,0.743,0.066,1.124,0.066c2.21,0,4.243-0.753,5.858-2.019c-2.064-0.038-3.806-1.402-4.406-3.275
		c0.289,0.055,0.583,0.084,0.887,0.084c0.43,0,0.847-0.057,1.243-0.166c-2.157-0.433-3.784-2.339-3.784-4.624
		c0-0.02,0-0.04,0.001-0.06c0.636,0.354,1.363,0.565,2.136,0.59c-1.266-0.846-2.098-2.29-2.098-3.926
		c0-0.865,0.232-1.674,0.639-2.371c2.326,2.854,5.801,4.732,9.722,4.929c-0.081-0.346-0.122-0.706-0.122-1.076
		c0-2.604,2.111-4.716,4.716-4.716c1.356,0,2.583,0.573,3.442,1.49c1.075-0.212,2.084-0.604,2.996-1.145
		c-0.353,1.102-1.1,2.026-2.074,2.61c0.954-0.114,1.863-0.368,2.709-0.743C35.907,85.718,35.107,86.549,34.186,87.214"/>
	<path fill="#51A6D2" d="M126.417,222.663c0-34.91-28.299-63.209-63.208-63.209C28.299,159.454,0,187.753,0,222.663
		c0,34.909,28.299,63.208,63.208,63.208S126.417,257.57,126.417,222.663"/>
	<path fill="#FFFFFF" d="M37.468,214.145v4.934h-3.22v-5.032c-4.479-0.401-8.354-2.165-11.875-5.185l2.264-3.019
		c3.02,2.716,5.988,4.378,9.762,4.779v-12.58c-7.447-1.761-10.718-4.528-10.718-9.812c0-5.185,4.378-9.008,10.567-9.311v-2.918h3.22
		v3.02c3.774,0.353,6.693,1.763,9.611,4.025l-2.164,3.02c-2.416-2.062-4.931-3.17-7.598-3.623v12.379
		c7.648,1.762,10.869,4.68,10.869,9.812C48.187,210.068,43.809,213.744,37.468,214.145 M34.399,182.294
		c-4.227,0.149-6.843,2.616-6.843,5.687c0,2.867,1.308,4.729,6.843,6.141V182.294z M37.317,198.748v12.025
		c4.277-0.2,6.994-2.564,6.994-5.885C44.312,201.918,42.903,200.107,37.317,198.748"/>
	<path fill="#FFFFFF" d="M32.931,265.835h-6.815v-3.006h0.963v-5.415h-0.963v-3.03h4.337l0.505,1.354
		c0.091-0.105,0.225-0.256,0.401-0.447c0.176-0.189,0.386-0.378,0.631-0.562c0.244-0.184,0.52-0.34,0.826-0.471
		c0.306-0.13,0.643-0.195,1.01-0.195c0.581,0,1.067,0.062,1.457,0.187c0.39,0.122,0.714,0.269,0.976,0.437
		c0.259,0.168,0.466,0.349,0.619,0.541c0.153,0.188,0.276,0.354,0.367,0.49c0.353-0.396,0.804-0.771,1.354-1.124
		c0.551-0.352,1.224-0.526,2.02-0.526c0.933,0,1.679,0.156,2.238,0.471c0.558,0.312,0.99,0.727,1.296,1.238
		c0.306,0.513,0.509,1.1,0.608,1.757c0.099,0.657,0.149,1.339,0.149,2.043v3.166h1.124v3.098h-5.829v-5.622
		c0-0.273,0.004-0.576,0.011-0.906c0.008-0.328-0.007-0.639-0.045-0.93c-0.039-0.29-0.119-0.531-0.241-0.723
		c-0.123-0.191-0.321-0.286-0.596-0.286c-0.49,0-0.815,0.155-0.976,0.471c-0.161,0.313-0.242,0.716-0.242,1.204v3.717h1.377v3.075
		h-5.944v-5.851c0-0.936-0.046-1.604-0.137-2.01c-0.092-0.404-0.368-0.606-0.827-0.606c-0.367,0-0.631,0.11-0.792,0.332
		s-0.241,0.569-0.241,1.045v4.084h1.377v3.004h0.002V265.835z"/>
	<path fill="#FFFFFF" d="M53.379,265.835h-6.426v-3.006h0.964v-5.483h-0.964v-2.984h5.324v8.47h1.102V265.835z M47.596,251.011
		c0-0.26,0.053-0.528,0.161-0.803c0.107-0.274,0.264-0.528,0.47-0.758c0.207-0.229,0.466-0.416,0.78-0.562
		c0.313-0.146,0.669-0.22,1.067-0.22c0.397,0,0.753,0.072,1.067,0.22c0.313,0.146,0.578,0.332,0.792,0.562s0.378,0.481,0.493,0.758
		c0.115,0.274,0.172,0.543,0.172,0.803c0,0.644-0.214,1.189-0.643,1.642c-0.429,0.451-1.056,0.679-1.882,0.679
		c-0.367,0-0.7-0.069-0.998-0.208c-0.299-0.139-0.559-0.314-0.781-0.538s-0.394-0.471-0.516-0.746
		C47.657,251.562,47.596,251.286,47.596,251.011"/>
	<polygon fill="#FFFFFF" points="61.228,265.835 54.526,265.835 54.526,262.829 55.513,262.829 55.513,251.585 54.549,251.585 
		54.549,248.623 59.874,248.623 59.874,262.829 61.228,262.829 	"/>
	<polygon fill="#FFFFFF" points="68.846,265.835 62.145,265.835 62.145,262.829 63.131,262.829 63.131,251.585 62.167,251.585 
		62.167,248.623 67.492,248.623 67.492,262.829 68.846,262.829 	"/>
	<path fill="#FFFFFF" d="M76.189,265.835h-6.426v-3.006h0.964v-5.483h-0.964v-2.984h5.324v8.47h1.102V265.835z M70.406,251.011
		c0-0.26,0.053-0.528,0.16-0.803s0.264-0.528,0.471-0.758s0.466-0.416,0.78-0.562c0.313-0.146,0.669-0.22,1.067-0.22
		c0.397,0,0.753,0.072,1.066,0.22c0.313,0.146,0.578,0.332,0.792,0.562c0.214,0.229,0.379,0.481,0.494,0.758
		c0.115,0.274,0.172,0.543,0.172,0.803c0,0.644-0.214,1.189-0.643,1.642c-0.429,0.451-1.056,0.679-1.881,0.679
		c-0.368,0-0.701-0.069-0.999-0.208c-0.298-0.139-0.559-0.314-0.78-0.538s-0.394-0.471-0.517-0.746
		C70.467,251.562,70.406,251.286,70.406,251.011"/>
	<path fill="#FFFFFF" d="M83.418,266.135c-0.826,0-1.626-0.127-2.398-0.379c-0.773-0.253-1.458-0.632-2.054-1.137
		c-0.596-0.505-1.075-1.141-1.434-1.904c-0.36-0.766-0.532-1.652-0.517-2.662c0-0.964,0.18-1.816,0.54-2.56
		c0.359-0.741,0.833-1.365,1.423-1.869c0.588-0.505,1.258-0.888,2.008-1.147c0.75-0.261,1.522-0.391,2.318-0.391
		c0.902,0.016,1.74,0.157,2.513,0.424c0.772,0.271,1.442,0.663,2.008,1.182c0.566,0.521,1.013,1.152,1.342,1.896
		s0.501,1.597,0.517,2.56c0.015,0.949-0.142,1.795-0.471,2.537c-0.33,0.741-0.777,1.368-1.343,1.881
		c-0.566,0.515-1.232,0.902-1.997,1.172C85.108,266,84.29,266.135,83.418,266.135 M83.418,263.195c0.245,0,0.463-0.074,0.654-0.229
		c0.191-0.151,0.355-0.364,0.493-0.643c0.138-0.275,0.241-0.601,0.31-0.976c0.069-0.377,0.104-0.777,0.104-1.207
		c0-0.871-0.146-1.598-0.436-2.18c-0.291-0.58-0.704-0.88-1.239-0.895c-0.229,0-0.44,0.076-0.632,0.229
		c-0.191,0.152-0.355,0.367-0.493,0.643c-0.138,0.275-0.249,0.599-0.333,0.965c-0.084,0.365-0.126,0.758-0.126,1.172
		c0,0.947,0.161,1.705,0.481,2.271C82.523,262.914,82.928,263.195,83.418,263.195"/>
	<path fill="#FFFFFF" d="M97.578,265.835H90.51v-3.006h0.963v-5.483H90.51v-2.984h4.888l0.527,1.425
		c0.398-0.536,0.861-0.978,1.389-1.32s1.159-0.517,1.893-0.517c0.887,0,1.603,0.148,2.146,0.447s0.964,0.688,1.262,1.17
		c0.298,0.481,0.497,1.024,0.597,1.629c0.1,0.605,0.149,1.205,0.149,1.804v3.832h1.079v3.006h-5.783v-6.264
		c0-0.199-0.004-0.423-0.012-0.666c-0.008-0.244-0.05-0.476-0.126-0.688c-0.078-0.215-0.204-0.396-0.379-0.551
		c-0.176-0.152-0.433-0.229-0.769-0.229c-0.291,0-0.532,0.063-0.723,0.194c-0.191,0.132-0.34,0.3-0.448,0.507
		c-0.107,0.205-0.18,0.436-0.218,0.688c-0.039,0.253-0.058,0.502-0.058,0.747v3.258h1.653L97.578,265.835L97.578,265.835z"/>
	<path fill="#FFFFFF" d="M28.446,53.188c-0.021,0.028-0.041,0.056-0.064,0.083c-0.041,0.049-0.085,0.099-0.134,0.147
		c-0.001,0.002-0.004,0.004-0.005,0.005L17.528,64.215c-0.943,0.95-2.47,0.95-3.413,0c-0.942-0.949-0.942-2.488,0-3.436l6.6-6.646
		H2.413C1.081,54.134,0,53.046,0,51.704c0-1.341,1.081-2.429,2.413-2.429h18.302l-6.598-6.646c-0.943-0.948-0.943-2.488,0-3.438
		c0.941-0.947,2.468-0.947,3.41,0l10.717,10.795c0.052,0.051,0.097,0.102,0.14,0.155c0.019,0.021,0.037,0.043,0.053,0.065
		c0.014,0.018,0.029,0.037,0.039,0.056c0.298,0.403,0.475,0.9,0.476,1.442c-0.001,0.542-0.178,1.041-0.477,1.445
		C28.467,53.162,28.456,53.175,28.446,53.188"/>
</g>
<path fill="#51A6D2" d="M109.216,135.029c0.191,0,0.343-0.059,0.456-0.176c0.113-0.118,0.168-0.28,0.168-0.487v-4.188
	c0-0.168-0.057-0.304-0.171-0.407c-0.115-0.103-0.266-0.155-0.453-0.155c-0.172,0-0.312,0.052-0.42,0.155
	c-0.107,0.104-0.161,0.239-0.161,0.407v4.188c0,0.212,0.05,0.375,0.15,0.491C108.886,134.973,109.029,135.029,109.216,135.029
	 M155.262,119.596c-10.188,0-18.447,8.259-18.447,18.447c0,10.188,8.262,18.447,18.447,18.447c10.188,0,18.447-8.26,18.447-18.447
	C173.709,127.855,165.449,119.596,155.262,119.596 M150.333,141.927c-2.104,0-3.81-1.736-3.81-3.883s1.705-3.884,3.81-3.884
	s3.812,1.738,3.812,3.884S152.438,141.927,150.333,141.927 M160.191,141.927c-2.105,0-3.812-1.736-3.812-3.883
	s1.706-3.884,3.812-3.884c2.103,0,3.81,1.738,3.81,3.884S162.294,141.927,160.191,141.927 M64.18,119.596
	c-10.188,0-18.447,8.259-18.447,18.447c0,10.188,8.259,18.447,18.447,18.447s18.447-8.26,18.447-18.447
	C82.627,127.855,74.369,119.596,64.18,119.596 M68.549,132.344h-2.773c-0.329,0-0.695,0.432-0.695,1.009v2.002h3.468v2.854h-3.468
	v8.572h-3.273v-8.572H58.84v-2.854h2.968v-1.68c0-2.409,1.673-4.369,3.969-4.369h2.773L68.549,132.344L68.549,132.344z
	 M109.528,119.596c-10.187,0-18.445,8.259-18.445,18.447c0,10.188,8.258,18.447,18.445,18.447c10.188,0,18.447-8.26,18.447-18.447
	C127.975,127.855,119.717,119.596,109.528,119.596 M112.477,128.479h1.412v5.894c0,0.184,0.028,0.314,0.088,0.396
	c0.061,0.082,0.155,0.122,0.289,0.122c0.104,0,0.234-0.054,0.394-0.161c0.157-0.109,0.303-0.246,0.437-0.415v-5.836h1.411v7.688
	h-1.411v-0.849c-0.26,0.312-0.529,0.551-0.812,0.715s-0.556,0.245-0.819,0.245c-0.326,0-0.573-0.114-0.738-0.343
	s-0.248-0.572-0.248-1.031L112.477,128.479L112.477,128.479z M109.284,128.284c0.583,0,1.062,0.187,1.435,0.559
	c0.373,0.372,0.561,0.852,0.561,1.438v3.972c0,0.657-0.184,1.175-0.549,1.549c-0.367,0.374-0.87,0.562-1.51,0.562
	c-0.619,0-1.112-0.194-1.482-0.579c-0.371-0.387-0.555-0.907-0.555-1.561v-3.985c0-0.596,0.189-1.068,0.569-1.422
	S108.643,128.284,109.284,128.284 M103.525,125.745l1.031,4.166h0.099l0.983-4.166h1.615l-1.849,6.098v4.324h-1.589v-4.129
	l-1.892-6.293H103.525z M119.014,147.491c0,1.503-1.22,2.723-2.721,2.723c-2.143,0.091-4.334,0.13-6.572,0.127
	c-2.235,0.003-4.428-0.036-6.57-0.127c-1.501,0-2.72-1.22-2.72-2.723c-0.09-1.189-0.129-2.382-0.126-3.572
	c-0.003-1.19,0.036-2.382,0.126-3.571c0-1.504,1.219-2.724,2.72-2.724c2.143-0.09,4.334-0.131,6.57-0.126
	c2.236-0.005,4.429,0.036,6.572,0.126c1.502,0,2.721,1.22,2.721,2.724c0.088,1.189,0.129,2.381,0.125,3.571
	C119.143,145.109,119.102,146.302,119.014,147.491 M107.816,146.518c-0.107,0.137-0.225,0.248-0.353,0.336
	c-0.128,0.086-0.234,0.131-0.319,0.131c-0.107,0-0.184-0.033-0.232-0.101c-0.048-0.063-0.072-0.172-0.072-0.319v-4.771h-1.142v5.204
	c0,0.37,0.067,0.647,0.202,0.834c0.134,0.187,0.333,0.276,0.597,0.276c0.214,0,0.436-0.064,0.663-0.196
	c0.228-0.134,0.447-0.325,0.658-0.579v0.688h1.142v-6.227h-1.142v4.725H107.816z M115.954,141.635c-0.511,0-0.929,0.17-1.25,0.511
	c-0.323,0.341-0.483,0.78-0.483,1.32v2.794c0,0.6,0.146,1.071,0.439,1.412c0.294,0.344,0.695,0.514,1.208,0.514
	c0.567,0,0.995-0.16,1.282-0.483c0.287-0.321,0.431-0.804,0.431-1.44v-0.468h-1.177v0.433c0,0.366-0.038,0.604-0.113,0.711
	s-0.207,0.16-0.396,0.16c-0.182,0-0.311-0.063-0.386-0.19c-0.075-0.126-0.112-0.354-0.112-0.681v-1.174h2.186v-1.586
	c0-0.59-0.141-1.043-0.421-1.359C116.88,141.792,116.479,141.635,115.954,141.635 M116.404,144.085h-1.01v-0.63
	c0-0.261,0.041-0.447,0.119-0.561c0.079-0.112,0.211-0.169,0.391-0.169c0.175,0,0.303,0.057,0.382,0.169s0.118,0.3,0.118,0.561
	V144.085L116.404,144.085z M105.713,139.578h-3.949v1.225h1.332v7.216h1.287v-7.216h1.331L105.713,139.578L105.713,139.578z
	 M112.244,141.714c-0.178,0-0.354,0.05-0.526,0.148c-0.173,0.1-0.337,0.243-0.491,0.433v-2.717h-1.153v8.439h1.153v-0.479
	c0.15,0.189,0.314,0.33,0.488,0.42c0.176,0.092,0.375,0.137,0.598,0.137c0.338,0,0.597-0.115,0.777-0.353
	c0.178-0.235,0.268-0.573,0.268-1.017v-3.453c0-0.51-0.096-0.896-0.285-1.162C112.881,141.847,112.604,141.714,112.244,141.714
	 M112.182,146.559c0,0.197-0.033,0.342-0.099,0.43s-0.169,0.131-0.308,0.131c-0.097,0-0.189-0.021-0.277-0.067
	c-0.086-0.044-0.176-0.116-0.271-0.218v-3.88c0.078-0.085,0.157-0.148,0.236-0.189c0.08-0.041,0.16-0.062,0.241-0.062
	c0.155,0,0.274,0.055,0.354,0.163c0.082,0.109,0.123,0.27,0.123,0.479L112.182,146.559L112.182,146.559z M18.447,119.596
	C8.259,119.596,0,127.854,0,138.043c0,10.189,8.259,18.447,18.447,18.447s18.448-8.26,18.448-18.447
	C36.895,127.855,28.635,119.596,18.447,119.596 M25.95,134.708c0.006,0.156,0.011,0.313,0.011,0.471
	c0,4.801-3.655,10.338-10.337,10.338c-2.052,0-3.961-0.604-5.569-1.635c0.284,0.035,0.573,0.051,0.866,0.051
	c1.703,0,3.269-0.579,4.513-1.556c-1.59-0.029-2.932-1.079-3.394-2.521c0.223,0.042,0.449,0.064,0.683,0.064
	c0.331,0,0.652-0.045,0.958-0.128c-1.662-0.334-2.915-1.803-2.915-3.562c0-0.016,0-0.03,0-0.046c0.49,0.272,1.05,0.436,1.645,0.455
	c-0.975-0.652-1.616-1.766-1.616-3.025c0-0.666,0.179-1.289,0.492-1.826c1.792,2.198,4.469,3.645,7.489,3.797
	c-0.062-0.267-0.094-0.544-0.094-0.829c0-2.006,1.626-3.632,3.633-3.632c1.045,0,1.99,0.44,2.652,1.146
	c0.828-0.163,1.605-0.466,2.308-0.882c-0.272,0.849-0.847,1.562-1.598,2.012c0.735-0.089,1.435-0.285,2.087-0.573
	C27.276,133.556,26.659,134.196,25.95,134.708"/>
<g>
	<path fill="#C21734" d="M43.389,58.75c-0.768-0.755-8.273-8.704-8.273-8.704c-0.41-0.403-0.615-0.932-0.615-1.461
		c0-0.529,0.205-1.057,0.615-1.46c0,0,7.506-7.949,8.273-8.705c0.769-0.755,2.15-0.807,2.971,0c0.819,0.806,0.885,1.932,0,2.921
		l-6.888,7.244l6.888,7.244c0.885,0.99,0.819,2.115,0,2.921C45.539,59.557,44.157,59.505,43.389,58.75z"/>
	<path fill="#C21734" d="M58.555,58.75c-0.768-0.755-8.273-8.704-8.273-8.704c-0.41-0.403-0.615-0.932-0.615-1.461
		c0-0.529,0.205-1.057,0.615-1.46c0,0,7.506-7.949,8.273-8.705c0.769-0.755,2.15-0.807,2.971,0c0.819,0.806,0.885,1.932,0,2.921
		l-6.888,7.244l6.888,7.244c0.885,0.99,0.819,2.115,0,2.921C60.706,59.557,59.324,59.505,58.555,58.75z"/>
</g>
<g>
	<path fill="#C21734" d="M84.943,38.586c0.768,0.755,8.273,8.704,8.273,8.704c0.41,0.403,0.615,0.932,0.615,1.461
		s-0.205,1.057-0.615,1.46c0,0-7.506,7.949-8.273,8.705c-0.769,0.755-2.15,0.807-2.971,0c-0.819-0.806-0.885-1.932,0-2.921
		l6.888-7.244l-6.888-7.244c-0.885-0.99-0.819-2.115,0-2.921C82.792,37.779,84.174,37.831,84.943,38.586z"/>
	<path fill="#C21734" d="M69.776,38.586c0.768,0.755,8.273,8.704,8.273,8.704c0.41,0.403,0.615,0.932,0.615,1.461
		s-0.205,1.057-0.615,1.46c0,0-7.506,7.949-8.273,8.705c-0.769,0.755-2.15,0.807-2.971,0c-0.819-0.806-0.885-1.932,0-2.921
		l6.888-7.244l-6.888-7.244c-0.885-0.99-0.819-2.115,0-2.921C67.626,37.779,69.008,37.831,69.776,38.586z"/>
</g>
<path fill="#51A6D2" d="M116.034,40.406c-0.597,0.607-6.882,6.542-6.882,6.542c-0.318,0.325-0.735,0.486-1.154,0.486
	s-0.836-0.161-1.154-0.486c0,0-6.286-5.934-6.883-6.542c-0.597-0.608-0.637-1.699,0-2.348c0.638-0.648,1.527-0.699,2.31,0
	l5.727,5.445l5.727-5.445c0.783-0.699,1.672-0.648,2.311,0C116.673,38.707,116.632,39.798,116.034,40.406z"/>
<g>
	<path fill="#FFFFFF" d="M59.136,229.045l4.387-4.817c3.784,4.903,8.86,7.656,15.827,7.656c7.828,0,13.247-5.334,13.247-12.301
		c0-7.57-5.419-12.387-13.161-12.387c-4.989,0-9.376,1.635-13.247,5.333l-5.247-1.806v-30.881h35.096v6.365H68.082v19.956
		c2.838-2.753,7.656-5.162,13.419-5.162c9.634,0,18.321,6.452,18.321,18.323c0,11.612-8.945,18.924-20.472,18.924
		C69.716,238.249,63.436,234.722,59.136,229.045z"/>
</g>
</svg>
