<?xml version="1.0" encoding="utf-8"?>
<!-- Generator: Adobe Illustrator 15.1.0, SVG Export Plug-In . SVG Version: 6.00 Build 0)  -->
<!DOCTYPE svg PUBLIC "-//W3C//DTD SVG 1.1//EN" "http://www.w3.org/Graphics/SVG/1.1/DTD/svg11.dtd">
<svg version="1.1" id="Layer_1" xmlns="http://www.w3.org/2000/svg" xmlns:xlink="http://www.w3.org/1999/xlink" x="0px" y="0px"
	 width="226px" height="244.871px" viewBox="0 0 226 244.871" enable-background="new 0 0 226 244.871" xml:space="preserve">
<g>
	<path fill="#15C55B" d="M35.394,18.229c-1.08-1.114-1.322-2.812-0.594-4.189c0.519-0.983,0.555-2.156,0.098-3.168
		c-0.457-1.015-1.355-1.754-2.428-2.001c-1.504-0.345-2.612-1.641-2.736-3.199c-0.087-1.11-0.683-2.117-1.608-2.72
		c-0.926-0.603-2.076-0.733-3.109-0.353c-1.451,0.533-3.073,0.05-4.008-1.192C20.34,0.521,19.303,0,18.202,0
		c-1.1,0-2.137,0.521-2.804,1.407c-0.935,1.243-2.559,1.726-4.008,1.192c-1.034-0.381-2.185-0.25-3.11,0.353
		c-0.926,0.603-1.521,1.609-1.609,2.72C6.548,7.229,5.439,8.524,3.936,8.87c-1.073,0.247-1.972,0.986-2.428,2.001
		c-0.458,1.013-0.421,2.186,0.098,3.169c0.727,1.377,0.486,3.075-0.595,4.189c-0.771,0.795-1.132,1.91-0.975,3.013
		c0.157,1.103,0.812,2.069,1.773,2.612c1.347,0.761,2.05,2.32,1.736,3.85c-0.225,1.091,0.067,2.226,0.787,3.069
		c0.721,0.843,1.788,1.296,2.887,1.226c1.539-0.098,2.962,0.829,3.514,2.289c0.394,1.041,1.244,1.836,2.3,2.15
		c1.056,0.314,2.196,0.11,3.082-0.55c1.243-0.925,2.936-0.925,4.178,0c0.887,0.66,2.026,0.864,3.082,0.55
		c1.056-0.314,1.906-1.109,2.3-2.15c0.551-1.459,1.975-2.386,3.514-2.289c1.098,0.07,2.165-0.383,2.885-1.226
		c0.721-0.843,1.012-1.977,0.788-3.069c-0.314-1.53,0.388-3.089,1.735-3.85c0.962-0.542,1.617-1.509,1.773-2.612
		C36.526,20.138,36.165,19.024,35.394,18.229 M15.184,27.276l-7.74-7.844l3.295-3.34l4.444,4.504l10.26-10.396l3.298,3.338
		L15.184,27.276z"/>
	<path fill="#FFFFFF" d="M142.277,87.631c0.249,0,0.445-0.076,0.592-0.229c0.146-0.153,0.219-0.364,0.219-0.632v-5.436
		c0-0.218-0.075-0.394-0.223-0.529c-0.149-0.133-0.345-0.201-0.587-0.201c-0.224,0-0.405,0.067-0.545,0.201
		c-0.14,0.135-0.209,0.311-0.209,0.529v5.436c0,0.275,0.065,0.487,0.195,0.637C141.849,87.557,142.035,87.631,142.277,87.631
		 M202.053,67.596c-13.226,0-23.947,10.721-23.947,23.947c0,13.226,10.722,23.947,23.947,23.947
		c13.225,0,23.947-10.721,23.947-23.947C226,78.317,215.278,67.596,202.053,67.596 M195.654,96.585c-2.73,0-4.944-2.255-4.944-5.041
		c0-2.786,2.213-5.042,4.944-5.042c2.732,0,4.947,2.257,4.947,5.042C200.601,94.33,198.386,96.585,195.654,96.585 M208.451,96.585
		c-2.732,0-4.947-2.255-4.947-5.041c0-2.786,2.215-5.042,4.947-5.042c2.73,0,4.946,2.257,4.946,5.042
		C213.396,94.33,211.181,96.585,208.451,96.585 M83.814,67.596c-13.225,0-23.946,10.721-23.946,23.947
		c0,13.227,10.721,23.947,23.946,23.947c13.226,0,23.948-10.721,23.948-23.947C107.762,78.317,97.041,67.596,83.814,67.596
		 M89.487,84.145h-3.601c-0.426,0-0.901,0.56-0.901,1.309v2.599h4.501v3.705h-4.501v11.129h-4.25V91.758h-3.853v-3.705h3.853v-2.181
		c0-3.127,2.171-5.672,5.151-5.672h3.601V84.145z M142.684,67.596c-13.225,0-23.946,10.721-23.946,23.947
		c0,13.227,10.721,23.947,23.946,23.947c13.226,0,23.947-10.721,23.947-23.947C166.631,78.317,155.91,67.596,142.684,67.596
		 M146.51,79.127h1.833v7.651c0,0.237,0.038,0.408,0.115,0.514s0.201,0.159,0.374,0.159c0.134,0,0.305-0.07,0.511-0.21
		c0.205-0.141,0.394-0.319,0.566-0.538v-7.576h1.832v9.981h-1.832v-1.102c-0.337,0.406-0.689,0.715-1.054,0.928
		c-0.365,0.212-0.72,0.318-1.063,0.318c-0.423,0-0.743-0.148-0.958-0.446c-0.214-0.297-0.322-0.742-0.322-1.337V79.127z
		 M142.366,78.875c0.757,0,1.379,0.241,1.863,0.725c0.484,0.483,0.727,1.105,0.727,1.866v5.155c0,0.854-0.238,1.525-0.713,2.011
		c-0.475,0.485-1.128,0.729-1.96,0.729c-0.802,0-1.443-0.251-1.924-0.752c-0.481-0.502-0.721-1.177-0.721-2.025v-5.174
		c0-0.773,0.247-1.387,0.74-1.846S141.534,78.875,142.366,78.875 M134.89,75.578l1.338,5.408h0.13l1.276-5.408h2.097l-2.401,7.916
		v5.614h-2.063v-5.361l-2.454-8.169H134.89z M154.995,103.808c0,1.952-1.582,3.535-3.53,3.535c-2.781,0.118-5.627,0.169-8.531,0.164
		c-2.902,0.005-5.749-0.046-8.53-0.164c-1.949,0-3.53-1.583-3.53-3.535c-0.117-1.545-0.168-3.091-0.164-4.637
		c-0.004-1.546,0.046-3.092,0.163-4.637c0-1.951,1.582-3.535,3.531-3.535c2.781-0.117,5.627-0.17,8.53-0.164
		c2.903-0.006,5.75,0.047,8.531,0.164c1.949,0,3.53,1.584,3.53,3.535c0.117,1.545,0.168,3.091,0.163,4.637
		C155.163,100.717,155.112,102.263,154.995,103.808 M140.461,102.544c-0.139,0.177-0.292,0.322-0.458,0.435
		c-0.167,0.113-0.305,0.17-0.414,0.17c-0.139,0-0.24-0.043-0.302-0.129c-0.062-0.085-0.093-0.224-0.093-0.416V96.41h-1.483v6.755
		c0,0.481,0.087,0.842,0.261,1.083s0.433,0.36,0.775,0.36c0.278,0,0.565-0.085,0.86-0.257c0.296-0.171,0.581-0.422,0.854-0.751
		v0.893h1.483V96.41h-1.483V102.544z M151.026,96.206c-0.664,0-1.205,0.221-1.624,0.662c-0.419,0.442-0.629,1.014-0.629,1.715v3.627
		c0,0.778,0.19,1.389,0.572,1.833c0.382,0.445,0.904,0.667,1.568,0.667c0.738,0,1.293-0.209,1.666-0.629
		c0.372-0.418,0.557-1.043,0.557-1.871v-0.606h-1.526v0.561c0,0.476-0.049,0.783-0.147,0.922c-0.098,0.14-0.27,0.208-0.516,0.208
		c-0.235,0-0.403-0.082-0.5-0.247c-0.098-0.164-0.147-0.459-0.147-0.884v-1.524h2.837v-2.057c0-0.767-0.182-1.355-0.546-1.764
		C152.226,96.41,151.705,96.206,151.026,96.206 M151.61,99.386H150.3v-0.817c0-0.338,0.052-0.581,0.154-0.728
		c0.103-0.146,0.272-0.22,0.508-0.22c0.226,0,0.391,0.074,0.494,0.22c0.103,0.146,0.154,0.389,0.154,0.728V99.386z M137.731,93.536
		h-5.127v1.59h1.729v9.366h1.67v-9.366h1.728V93.536z M146.208,96.308c-0.23,0-0.458,0.065-0.682,0.193
		c-0.225,0.129-0.437,0.316-0.637,0.562v-3.527h-1.498v10.956h1.498v-0.622c0.195,0.246,0.407,0.429,0.633,0.546
		c0.228,0.118,0.486,0.177,0.776,0.177c0.439,0,0.775-0.152,1.008-0.458c0.232-0.305,0.348-0.745,0.348-1.319v-4.482
		c0-0.661-0.124-1.163-0.371-1.509C147.036,96.481,146.677,96.308,146.208,96.308 M146.128,102.597c0,0.257-0.043,0.443-0.128,0.557
		c-0.085,0.113-0.219,0.17-0.4,0.17c-0.126,0-0.246-0.029-0.359-0.087c-0.113-0.058-0.23-0.153-0.352-0.284v-5.036
		c0.101-0.111,0.203-0.193,0.306-0.246s0.208-0.08,0.313-0.08c0.201,0,0.355,0.071,0.46,0.212c0.106,0.142,0.159,0.349,0.159,0.621
		V102.597z M24.446,67.596c-13.226,0-23.947,10.721-23.947,23.947c0,13.227,10.721,23.947,23.947,23.947
		s23.948-10.721,23.948-23.947C48.394,78.317,37.672,67.596,24.446,67.596 M34.186,87.214c0.009,0.203,0.014,0.406,0.014,0.61
		c0,6.233-4.744,13.421-13.419,13.421c-2.664,0-5.142-0.782-7.229-2.121c0.368,0.045,0.743,0.066,1.124,0.066
		c2.21,0,4.243-0.753,5.858-2.019c-2.064-0.038-3.806-1.402-4.406-3.275c0.289,0.055,0.583,0.084,0.887,0.084
		c0.43,0,0.847-0.057,1.243-0.166c-2.157-0.433-3.784-2.339-3.784-4.624c0-0.02,0-0.04,0.001-0.06
		c0.636,0.354,1.363,0.565,2.136,0.59c-1.266-0.846-2.098-2.29-2.098-3.926c0-0.865,0.232-1.674,0.639-2.371
		c2.326,2.854,5.801,4.732,9.722,4.929c-0.081-0.346-0.122-0.706-0.122-1.076c0-2.604,2.111-4.716,4.716-4.716
		c1.356,0,2.583,0.573,3.442,1.49c1.075-0.212,2.084-0.604,2.996-1.145c-0.353,1.102-1.1,2.026-2.074,2.61
		c0.954-0.114,1.863-0.368,2.709-0.743C35.907,85.718,35.107,86.549,34.186,87.214"/>
	<path fill="#51A6D2" d="M126.417,181.663c0-34.91-28.299-63.209-63.208-63.209C28.299,118.454,0,146.753,0,181.663
		c0,34.909,28.299,63.208,63.208,63.208C98.117,244.871,126.417,216.571,126.417,181.663"/>
	<path fill="#FFFFFF" d="M37.468,173.145v4.932h-3.22v-5.032c-4.479-0.402-8.354-2.165-11.875-5.183l2.264-3.019
		c3.02,2.716,5.988,4.377,9.762,4.779v-12.58c-7.447-1.761-10.718-4.529-10.718-9.812c0-5.183,4.378-9.007,10.567-9.309v-2.918h3.22
		v3.019c3.774,0.352,6.693,1.762,9.611,4.026l-2.164,3.019c-2.416-2.063-4.931-3.17-7.598-3.623v12.378
		c7.648,1.762,10.869,4.68,10.869,9.812C48.187,169.069,43.809,172.744,37.468,173.145 M34.399,141.294
		c-4.227,0.15-6.843,2.616-6.843,5.686c0,2.868,1.308,4.729,6.843,6.14V141.294z M37.317,157.748v12.026
		c4.277-0.201,6.994-2.565,6.994-5.886C44.312,160.918,42.903,159.107,37.317,157.748"/>
	<path fill="#FFFFFF" d="M95.402,141.038v40.826h9.408v5.696h-9.408v14.326h-6.559V187.56H56.994l-1.726-4.921l34.179-41.601H95.402
		z M88.843,150.704l-25.375,31.159h25.375V150.704z"/>
	<path fill="#FFFFFF" d="M32.931,224.835h-6.815v-3.006h0.963v-5.415h-0.963v-3.03h4.337l0.505,1.354
		c0.091-0.105,0.225-0.255,0.401-0.447c0.176-0.19,0.386-0.378,0.631-0.562c0.244-0.184,0.52-0.341,0.826-0.471
		s0.643-0.195,1.01-0.195c0.581,0,1.067,0.062,1.457,0.185c0.39,0.122,0.714,0.268,0.976,0.436c0.259,0.168,0.466,0.348,0.619,0.54
		c0.153,0.19,0.276,0.355,0.367,0.492c0.353-0.397,0.804-0.772,1.354-1.124c0.551-0.352,1.224-0.528,2.02-0.528
		c0.933,0,1.679,0.157,2.238,0.471c0.558,0.313,0.99,0.727,1.296,1.239s0.509,1.099,0.608,1.756
		c0.099,0.658,0.149,1.339,0.149,2.043v3.166h1.124v3.098h-5.829v-5.622c0-0.274,0.004-0.576,0.011-0.906
		c0.008-0.329-0.007-0.639-0.045-0.93c-0.039-0.29-0.119-0.531-0.241-0.723c-0.123-0.191-0.321-0.286-0.596-0.286
		c-0.49,0-0.815,0.156-0.976,0.471c-0.161,0.313-0.242,0.715-0.242,1.204v3.717h1.377v3.075h-5.944v-5.851
		c0-0.934-0.046-1.604-0.137-2.009c-0.092-0.405-0.368-0.607-0.827-0.607c-0.367,0-0.631,0.11-0.792,0.332s-0.241,0.57-0.241,1.045
		v4.084h1.377V224.835z"/>
	<path fill="#FFFFFF" d="M53.379,224.835h-6.426v-3.006h0.964v-5.484h-0.964v-2.984h5.324v8.469h1.102V224.835z M47.596,210.011
		c0-0.26,0.053-0.528,0.161-0.803c0.107-0.275,0.264-0.528,0.47-0.758c0.207-0.229,0.466-0.416,0.78-0.562
		c0.313-0.146,0.669-0.218,1.067-0.218c0.397,0,0.753,0.072,1.067,0.218c0.313,0.146,0.578,0.333,0.792,0.562
		s0.378,0.482,0.493,0.758c0.115,0.274,0.172,0.543,0.172,0.803c0,0.643-0.214,1.189-0.643,1.641
		c-0.429,0.451-1.056,0.678-1.882,0.678c-0.367,0-0.7-0.069-0.998-0.208c-0.299-0.137-0.559-0.316-0.781-0.538
		s-0.394-0.471-0.516-0.746C47.657,210.562,47.596,210.286,47.596,210.011"/>
	<polygon fill="#FFFFFF" points="61.228,224.835 54.526,224.835 54.526,221.829 55.513,221.829 55.513,210.585 54.549,210.585 
		54.549,207.623 59.874,207.623 59.874,221.829 61.228,221.829 	"/>
	<polygon fill="#FFFFFF" points="68.846,224.835 62.145,224.835 62.145,221.829 63.131,221.829 63.131,210.585 62.167,210.585 
		62.167,207.623 67.492,207.623 67.492,221.829 68.846,221.829 	"/>
	<path fill="#FFFFFF" d="M76.189,224.835h-6.426v-3.006h0.964v-5.484h-0.964v-2.984h5.324v8.469h1.102V224.835z M70.406,210.011
		c0-0.26,0.053-0.528,0.16-0.803c0.107-0.275,0.264-0.528,0.471-0.758s0.466-0.416,0.78-0.562c0.313-0.146,0.669-0.218,1.067-0.218
		c0.397,0,0.753,0.072,1.066,0.218c0.313,0.146,0.578,0.333,0.792,0.562s0.379,0.482,0.494,0.758
		c0.115,0.274,0.172,0.543,0.172,0.803c0,0.643-0.214,1.189-0.643,1.641s-1.056,0.678-1.881,0.678c-0.368,0-0.701-0.069-0.999-0.208
		c-0.298-0.137-0.559-0.316-0.78-0.538s-0.394-0.471-0.517-0.746C70.467,210.562,70.406,210.286,70.406,210.011"/>
	<path fill="#FFFFFF" d="M83.418,225.135c-0.826,0-1.626-0.127-2.398-0.379c-0.773-0.253-1.458-0.632-2.054-1.137
		s-1.075-1.14-1.434-1.904c-0.36-0.766-0.532-1.652-0.517-2.662c0-0.964,0.18-1.816,0.54-2.56c0.359-0.741,0.833-1.365,1.423-1.869
		c0.588-0.505,1.258-0.888,2.008-1.147c0.75-0.261,1.522-0.391,2.318-0.391c0.902,0.016,1.74,0.157,2.513,0.424
		c0.772,0.269,1.442,0.663,2.008,1.182c0.566,0.521,1.013,1.152,1.342,1.894c0.329,0.742,0.501,1.596,0.517,2.559
		c0.015,0.949-0.142,1.795-0.471,2.537c-0.33,0.742-0.777,1.369-1.343,1.881c-0.566,0.514-1.232,0.903-1.997,1.171
		C85.108,225,84.29,225.135,83.418,225.135 M83.418,222.196c0.245,0,0.463-0.075,0.654-0.229c0.191-0.153,0.355-0.366,0.493-0.643
		c0.138-0.275,0.241-0.6,0.31-0.975c0.069-0.376,0.104-0.777,0.104-1.206c0-0.872-0.146-1.598-0.436-2.18
		c-0.291-0.58-0.704-0.88-1.239-0.895c-0.229,0-0.44,0.076-0.632,0.229c-0.191,0.152-0.355,0.367-0.493,0.642
		c-0.138,0.276-0.249,0.598-0.333,0.965c-0.084,0.366-0.126,0.757-0.126,1.171c0,0.948,0.161,1.706,0.481,2.271
		C82.523,221.914,82.928,222.196,83.418,222.196"/>
	<path fill="#FFFFFF" d="M97.578,224.835h-7.068v-3.006h0.963v-5.484h-0.963v-2.984h4.888l0.527,1.424
		c0.398-0.536,0.861-0.976,1.389-1.32c0.528-0.344,1.159-0.517,1.893-0.517c0.887,0,1.603,0.15,2.146,0.448
		c0.543,0.299,0.964,0.688,1.262,1.171c0.298,0.481,0.497,1.024,0.597,1.629c0.1,0.605,0.149,1.205,0.149,1.802v3.832h1.079v3.006
		h-5.783v-6.264c0-0.199-0.004-0.421-0.012-0.666c-0.008-0.244-0.05-0.475-0.126-0.688c-0.078-0.215-0.204-0.397-0.379-0.551
		c-0.176-0.153-0.433-0.229-0.769-0.229c-0.291,0-0.532,0.064-0.723,0.195c-0.191,0.13-0.34,0.298-0.448,0.505
		c-0.107,0.206-0.18,0.436-0.218,0.688c-0.039,0.253-0.058,0.502-0.058,0.747v3.258h1.653V224.835z"/>
	<path fill="#FFFFFF" d="M28.446,53.188c-0.021,0.028-0.041,0.056-0.064,0.083c-0.041,0.049-0.085,0.099-0.134,0.147
		c-0.001,0.002-0.004,0.004-0.005,0.005L17.528,64.215c-0.943,0.95-2.47,0.95-3.413,0c-0.942-0.949-0.942-2.488,0-3.436l6.6-6.646
		H2.413C1.081,54.134,0,53.046,0,51.704c0-1.341,1.081-2.429,2.413-2.429h18.302l-6.598-6.646c-0.943-0.948-0.943-2.488,0-3.438
		c0.941-0.947,2.468-0.947,3.41,0l10.717,10.795c0.052,0.051,0.097,0.102,0.14,0.155c0.019,0.021,0.037,0.043,0.053,0.065
		c0.014,0.018,0.029,0.037,0.039,0.056c0.298,0.403,0.475,0.9,0.476,1.442c-0.001,0.542-0.178,1.041-0.477,1.445
		C28.467,53.162,28.456,53.175,28.446,53.188"/>
	<rect x="-113.5" y="-122.978" display="none" fill="none" width="792" height="612"/>
</g>
</svg>
